<svg data-v-0dd9719b="" version="1.0" xmlns="http://www.w3.org/2000/svg" xmlns:xlink="http://www.w3.org/1999/xlink" width="100%" height="100%" viewBox="0 0 340.000000 250.000000" preserveAspectRatio="xMidYMid meet" color-interpolation-filters="sRGB" style="margin: auto;"> <rect data-v-0dd9719b="" x="0" y="0" width="100%" height="100%" fill="#173058" fill-opacity="1" class="background"></rect>  <g data-v-0dd9719b="" fill="#d87857" class="basesvg" transform="translate(57.152320861816406,108.19999885559082)"><g data-gra="path-name" fill-rule="" class="tp-name"><g transform="scale(1)"><g><path d="M28.91-32.85L24.11-32.85C23.21-32.85 22.67-32.55 22.67-31.4L22.67-14.08 12.08-31.15C11.43-32.15 11.08-32.85 9.84-32.85L5.14-32.85C3.99-32.85 3.69-32.3 3.69-31.4L3.69-1.45C3.69-0.3 4.24 0 5.14 0L10.08 0C10.98 0 11.53-0.3 11.53-1.45L11.53-18.82 22.12-1.7C22.77-0.7 23.11 0 24.36 0L28.91 0C30.05 0 30.35-0.55 30.35-1.45L30.35-31.4C30.35-32.55 29.8-32.85 28.91-32.85ZM61.56-6.99L45.63-6.99 45.63-13.58 59.01-13.58C60.16-13.58 60.46-14.13 60.46-15.03L60.46-18.92C60.46-19.82 60.16-20.37 59.01-20.37L45.63-20.37 45.63-25.81 60.71-25.81C61.86-25.81 62.16-26.36 62.16-27.26L62.16-31.4C62.16-32.3 61.86-32.85 60.71-32.85L39.19-32.85C38.04-32.85 37.74-32.3 37.74-31.4L37.74-1.45C37.74-0.55 38.04 0 39.19 0L61.56 0C62.7 0 63-0.55 63-1.45L63-5.54C63-6.44 62.7-6.99 61.56-6.99ZM93.61-32.85L88.67-32.85C87.77-32.85 87.22-32.55 87.22-31.4L87.22-11.13C87.22-7.99 85.12-6.19 81.83-6.19 78.53-6.19 76.48-7.99 76.48-11.13L76.48-31.4C76.48-32.55 75.93-32.85 75.04-32.85L70.09-32.85C69.19-32.85 68.65-32.55 68.65-31.4L68.65-10.03C68.65-2.2 75.88 0.75 81.83 0.75 87.77 0.75 95.06-2.2 95.06-10.03L95.06-31.4C95.06-32.55 94.51-32.85 93.61-32.85ZM130.3-1.4L119.27-31.3C118.82-32.35 118.32-32.85 117.22-32.85L112.43-32.85C111.33-32.85 110.78-32.35 110.38-31.3L99.3-1.4C99.05-0.8 99.05 0 100.15 0L105.39 0C106.49 0 106.89-0.3 107.29-1.5L108.68-5.44 120.92-5.44 122.31-1.5C122.71-0.3 123.11 0 124.21 0L129.45 0C130.55 0 130.55-0.8 130.3-1.4ZM111.08-12.43L114.83-23.46 118.57-12.43ZM159.31-32.85L154.37-32.85C153.47-32.85 152.92-32.55 152.92-31.4L152.92-11.13C152.92-7.99 150.82-6.19 147.53-6.19 144.23-6.19 142.18-7.99 142.18-11.13L142.18-31.4C142.18-32.55 141.63-32.85 140.74-32.85L135.79-32.85C134.89-32.85 134.35-32.55 134.35-31.4L134.35-10.03C134.35-2.2 141.58 0.75 147.53 0.75 153.47 0.75 160.76-2.2 160.76-10.03L160.76-31.4C160.76-32.55 160.21-32.85 159.31-32.85ZM194.65-1.6L187.61-11.83C190.71-12.88 194.55-16.52 194.55-21.77 194.55-24.96 193.51-27.81 191.66-29.6 189.56-31.7 187.17-32.8 181.72-32.8L169.14-32.8C167.99-32.8 167.74-32.25 167.74-31.35L167.74-1.45C167.74-0.3 168.24 0 169.14 0L174.09 0C174.98 0 175.53-0.3 175.53-1.45L175.53-25.81 182.17-25.81C184.77-25.81 186.77-24.16 186.77-21.57 186.77-19.22 184.47-17.52 182.02-17.52L181.02-17.52C179.88-17.52 179.58-16.97 179.58-16.08L179.58-12.08C179.58-10.68 179.68-10.13 180.13-9.54L185.52-1.5C186.22-0.45 186.82 0 188.01 0L193.9 0C194.85 0 195.1-0.9 194.65-1.6ZM229.25-1.4L218.22-31.3C217.77-32.35 217.27-32.85 216.17-32.85L211.38-32.85C210.28-32.85 209.73-32.35 209.33-31.3L198.25-1.4C198-0.8 198 0 199.1 0L204.34 0C205.44 0 205.84-0.3 206.24-1.5L207.63-5.44 219.87-5.44 221.26-1.5C221.66-0.3 222.06 0 223.16 0L228.4 0C229.5 0 229.5-0.8 229.25-1.4ZM210.03-12.43L213.77-23.46 217.52-12.43Z" transform="translate(-3.690000057220459, 32.849998474121094)"></path></g> <!----> <!----> <!----> <!----> <!----> <!----> <!----></g></g> <!----></g><defs v-gra="od"></defs></svg>